<svg width="94" height="55" viewBox="0 0 94 55" fill="none" xmlns="http://www.w3.org/2000/svg">
<path d="M0.465909 21V0.636363H7.34659C8.9375 0.636363 10.2434 0.908143 11.2642 1.4517C12.285 1.98864 13.0407 2.72775 13.5312 3.66903C14.0218 4.61032 14.267 5.68087 14.267 6.88068C14.267 8.08049 14.0218 9.14441 13.5312 10.0724C13.0407 11.0005 12.2884 11.7296 11.2741 12.2599C10.2599 12.7836 8.96402 13.0455 7.38636 13.0455H1.81818V10.8182H7.30682C8.39394 10.8182 9.26894 10.6591 9.93182 10.3409C10.6013 10.0227 11.0852 9.57197 11.3835 8.98864C11.6884 8.39867 11.8409 7.69602 11.8409 6.88068C11.8409 6.06534 11.6884 5.35275 11.3835 4.7429C11.0786 4.13305 10.5914 3.66241 9.92188 3.33097C9.25237 2.9929 8.36742 2.82386 7.26705 2.82386H2.93182V21H0.465909ZM10.0511 11.8523L15.0625 21H12.1989L7.26705 11.8523H10.0511ZM31.7397 0.636363H34.2056V14.1193C34.2056 15.5114 33.8775 16.7543 33.2212 17.848C32.5716 18.9351 31.6535 19.7936 30.467 20.4233C29.2804 21.0464 27.8884 21.358 26.2908 21.358C24.6933 21.358 23.3013 21.0464 22.1147 20.4233C20.9281 19.7936 20.0067 18.9351 19.3505 17.848C18.7009 16.7543 18.3761 15.5114 18.3761 14.1193V0.636363H20.842V13.9205C20.842 14.9148 21.0607 15.7997 21.4982 16.5753C21.9357 17.3442 22.5588 17.9508 23.3675 18.3949C24.1829 18.8324 25.1573 19.0511 26.2908 19.0511C27.4244 19.0511 28.3988 18.8324 29.2141 18.3949C30.0295 17.9508 30.6526 17.3442 31.0835 16.5753C31.521 15.7997 31.7397 14.9148 31.7397 13.9205V0.636363ZM39.13 21V0.636363H46.0107C47.6082 0.636363 48.9141 0.924715 49.9283 1.50142C50.9491 2.0715 51.7048 2.84375 52.1953 3.81818C52.6858 4.79261 52.9311 5.87973 52.9311 7.07955C52.9311 8.27936 52.6858 9.36979 52.1953 10.3509C51.7114 11.3319 50.9624 12.1141 49.9482 12.6974C48.9339 13.2741 47.6347 13.5625 46.0504 13.5625H41.1186V11.375H45.9709C47.0646 11.375 47.9429 11.1861 48.6058 10.8082C49.2687 10.4304 49.7493 9.91998 50.0476 9.27699C50.3525 8.62737 50.505 7.89489 50.505 7.07955C50.505 6.2642 50.3525 5.53504 50.0476 4.89204C49.7493 4.24905 49.2654 3.74526 48.5959 3.38068C47.9264 3.00947 47.0381 2.82386 45.9311 2.82386H41.5959V21H39.13ZM55.6605 21H53.0753L60.5526 0.636363H63.098L70.5753 21H67.9901L61.9048 3.85795H61.7457L55.6605 21ZM56.6151 13.0455H67.0355V15.233H56.6151V13.0455ZM73.7472 0.636363H76.6903L83.6108 17.5398H83.8494L90.7699 0.636363H93.7131V21H91.4062V5.52841H91.2074L84.8438 21H82.6165L76.2528 5.52841H76.054V21H73.7472V0.636363Z" fill="url(#paint0_linear_1_39)"/>
<path d="M0.465909 55V34.6364H7.34659C8.94413 34.6364 10.25 34.9247 11.2642 35.5014C12.285 36.0715 13.0407 36.8438 13.5312 37.8182C14.0218 38.7926 14.267 39.8797 14.267 41.0795C14.267 42.2794 14.0218 43.3698 13.5312 44.3509C13.0473 45.3319 12.2983 46.1141 11.2841 46.6974C10.2699 47.2741 8.97064 47.5625 7.38636 47.5625H2.45455V45.375H7.30682C8.40057 45.375 9.27888 45.1861 9.94176 44.8082C10.6046 44.4304 11.0852 43.92 11.3835 43.277C11.6884 42.6274 11.8409 41.8949 11.8409 41.0795C11.8409 40.2642 11.6884 39.535 11.3835 38.892C11.0852 38.2491 10.6013 37.7453 9.93182 37.3807C9.26231 37.0095 8.37405 36.8239 7.26705 36.8239H2.93182V55H0.465909ZM16.9964 55H14.4112L21.8885 34.6364H24.4339L31.9112 55H29.326L23.2408 37.858H23.0817L16.9964 55ZM17.951 47.0455H28.3714V49.233H17.951V47.0455ZM35.0831 55V34.6364H37.549V52.8125H47.0149V55H35.0831Z" fill="white"/>
<defs>
<linearGradient id="paint0_linear_1_39" x1="51.5" y1="-6" x2="51.5" y2="61" gradientUnits="userSpaceOnUse">
<stop stop-color="#FF56F6"/>
<stop offset="0.348958" stop-color="#B936EE"/>
<stop offset="0.651042" stop-color="#406AFF"/>
<stop offset="1" stop-color="#F5F5F5"/>
</linearGradient>
</defs>
</svg>
